HIERARCHY
ROOT Hips
{
	OFFSET -14.64140 90.27770 -84.91600
	CHANNELS 6 Xposition Yposition Zposition Zrotation Xrotation Yrotation
	JOINT Spine
	{
		OFFSET 0.00000 13.20850 -1.60436
		CHANNELS 3 Zrotation Xrotation Yrotation
		JOINT Spine1
		{
			OFFSET 0.00000 8.61716 0.00000
			CHANNELS 3 Zrotation Xrotation Yrotation
			JOINT Spine2
			{
				OFFSET 0.00000 8.61717 0.00000
				CHANNELS 3 Zrotation Xrotation Yrotation
				JOINT Spine3
				{
					OFFSET 0.00000 8.61717 0.00000
					CHANNELS 3 Zrotation Xrotation Yrotation
					JOINT Neck
					{
						OFFSET 0.00000 11.07920 1.10792
						CHANNELS 3 Zrotation Xrotation Yrotation
						JOINT Neck1
						{
							OFFSET 0.00000 7.08032 0.00000
							CHANNELS 3 Zrotation Xrotation Yrotation
							JOINT Head
							{
								OFFSET 0.00000 7.08031 0.00000
								CHANNELS 3 Zrotation Xrotation Yrotation
								End site
								{
									OFFSET 0.00000 0.00000 0.00000
								}
							}
						}
					}
					JOINT RightShoulder
					{
						OFFSET -0.01000 7.91373 5.19711
						CHANNELS 3 Zrotation Xrotation Yrotation
						JOINT RightArm
						{
							OFFSET -18.41580 0.00000 0.00000
							CHANNELS 3 Zrotation Xrotation Yrotation
							JOINT RightForeArm
							{
								OFFSET -29.11090 0.00000 0.00000
								CHANNELS 3 Zrotation Xrotation Yrotation
								JOINT RightHand
								{
									OFFSET -24.65040 0.00000 0.00000
									CHANNELS 3 Zrotation Xrotation Yrotation
									JOINT RightHandThumb1
									{
										OFFSET -5.35114 -0.85590 3.97906
										CHANNELS 3 Zrotation Xrotation Yrotation
										JOINT RightHandThumb2
										{
											OFFSET -4.52789 0.00000 0.00000
											CHANNELS 3 Zrotation Xrotation Yrotation
											JOINT RightHandThumb3
											{
												OFFSET -2.46976 0.00000 0.00000
												CHANNELS 3 Zrotation Xrotation Yrotation
												End site
												{
													OFFSET 0.00000 0.00000 0.00000
												}
											}
										}
									}
									JOINT RightHandIndex1
									{
										OFFSET -14.26970 0.00000 2.88139
										CHANNELS 3 Zrotation Xrotation Yrotation
										JOINT RightHandIndex2
										{
											OFFSET -5.48836 0.00000 0.00000
											CHANNELS 3 Zrotation Xrotation Yrotation
											JOINT RightHandIndex3
											{
												OFFSET -3.01859 0.00000 0.00000
												CHANNELS 3 Zrotation Xrotation Yrotation
												End site
												{
													OFFSET 0.00000 0.00000 0.00000
												}
											}
										}
									}
									JOINT RightHandMiddle1
									{
										OFFSET -14.26970 0.00000 -0.09147
										CHANNELS 3 Zrotation Xrotation Yrotation
										JOINT RightHandMiddle2
										{
											OFFSET -6.17441 0.00000 0.00000
											CHANNELS 3 Zrotation Xrotation Yrotation
											JOINT RightHandMiddle3
											{
												OFFSET -3.56743 0.00000 0.00000
												CHANNELS 3 Zrotation Xrotation Yrotation
												End site
												{
													OFFSET 0.00000 0.00000 0.00000
												}
											}
										}
									}
									JOINT RightHandRing1
									{
										OFFSET -12.69180 0.00000 -3.06433
										CHANNELS 3 Zrotation Xrotation Yrotation
										JOINT RightHandRing2
										{
											OFFSET -5.62556 0.00000 0.00000
											CHANNELS 3 Zrotation Xrotation Yrotation
											JOINT RightHandRing3
											{
												OFFSET -3.56744 0.00000 0.00000
												CHANNELS 3 Zrotation Xrotation Yrotation
												End site
												{
													OFFSET 0.00000 0.00000 0.00000
												}
											}
										}
									}
									JOINT RightHandPinky1
									{
										OFFSET -11.11390 0.00000 -6.03719
										CHANNELS 3 Zrotation Xrotation Yrotation
										JOINT RightHandPinky2
										{
											OFFSET -4.52789 0.00000 0.00000
											CHANNELS 3 Zrotation Xrotation Yrotation
											JOINT RightHandPinky3
											{
												OFFSET -2.46976 0.00000 0.00000
												CHANNELS 3 Zrotation Xrotation Yrotation
												End site
												{
													OFFSET 0.00000 0.00000 0.00000
												}
											}
										}
									}
								}
							}
						}
					}
					JOINT LeftShoulder
					{
						OFFSET 0.01000 7.91373 5.19711
						CHANNELS 3 Zrotation Xrotation Yrotation
						JOINT LeftArm
						{
							OFFSET 18.41580 0.00000 0.00000
							CHANNELS 3 Zrotation Xrotation Yrotation
							JOINT LeftForeArm
							{
								OFFSET 29.11090 0.00000 0.00000
								CHANNELS 3 Zrotation Xrotation Yrotation
								JOINT LeftHand
								{
									OFFSET 24.65040 0.00000 0.00000
									CHANNELS 3 Zrotation Xrotation Yrotation
									JOINT LeftHandThumb1
									{
										OFFSET 5.35114 -0.85590 3.97906
										CHANNELS 3 Zrotation Xrotation Yrotation
										JOINT LeftHandThumb2
										{
											OFFSET 4.52789 0.00000 0.00000
											CHANNELS 3 Zrotation Xrotation Yrotation
											JOINT LeftHandThumb3
											{
												OFFSET 2.46977 0.00000 0.00000
												CHANNELS 3 Zrotation Xrotation Yrotation
												End site
												{
													OFFSET 0.00000 0.00000 0.00000
												}
											}
										}
									}
									JOINT LeftHandIndex1
									{
										OFFSET 14.26970 0.00000 2.88139
										CHANNELS 3 Zrotation Xrotation Yrotation
										JOINT LeftHandIndex2
										{
											OFFSET 5.48836 0.00000 0.00000
											CHANNELS 3 Zrotation Xrotation Yrotation
											JOINT LeftHandIndex3
											{
												OFFSET 3.01859 0.00000 0.00000
												CHANNELS 3 Zrotation Xrotation Yrotation
												End site
												{
													OFFSET 0.00000 0.00000 0.00000
												}
											}
										}
									}
									JOINT LeftHandMiddle1
									{
										OFFSET 14.26970 0.00000 -0.09147
										CHANNELS 3 Zrotation Xrotation Yrotation
										JOINT LeftHandMiddle2
										{
											OFFSET 6.17440 0.00000 0.00000
											CHANNELS 3 Zrotation Xrotation Yrotation
											JOINT LeftHandMiddle3
											{
												OFFSET 3.56744 0.00000 0.00000
												CHANNELS 3 Zrotation Xrotation Yrotation
												End site
												{
													OFFSET 0.00000 0.00000 0.00000
												}
											}
										}
									}
									JOINT LeftHandRing1
									{
										OFFSET 12.69180 0.00000 -3.06433
										CHANNELS 3 Zrotation Xrotation Yrotation
										JOINT LeftHandRing2
										{
											OFFSET 5.62556 0.00000 0.00000
											CHANNELS 3 Zrotation Xrotation Yrotation
											JOINT LeftHandRing3
											{
												OFFSET 3.56744 0.00000 0.00000
												CHANNELS 3 Zrotation Xrotation Yrotation
												End site
												{
													OFFSET 0.00000 0.00000 0.00000
												}
											}
										}
									}
									JOINT LeftHandPinky1
									{
										OFFSET 11.11390 0.00000 -6.03719
										CHANNELS 3 Zrotation Xrotation Yrotation
										JOINT LeftHandPinky2
										{
											OFFSET 4.52789 0.00000 0.00000
											CHANNELS 3 Zrotation Xrotation Yrotation
											JOINT LeftHandPinky3
											{
												OFFSET 2.46976 0.00000 0.00000
												CHANNELS 3 Zrotation Xrotation Yrotation
												End site
												{
													OFFSET 0.00000 0.00000 0.00000
												}
											}
										}
									}
								}
							}
						}
					}
					JOINT pCube4
					{
						OFFSET 0.00000 10.91090 1.10792
						CHANNELS 3 Zrotation Xrotation Yrotation
						End site
						{
							OFFSET 0.00000 0.00000 0.00000
						}
					}
				}
			}
		}
	}
	JOINT RightUpLeg
	{
		OFFSET -9.98441 0.00000 0.00000
		CHANNELS 3 Zrotation Xrotation Yrotation
		JOINT RightLeg
		{
			OFFSET 0.00000 -42.11790 0.00000
			CHANNELS 3 Zrotation Xrotation Yrotation
			JOINT RightFoot
			{
				OFFSET 0.00000 -45.00020 -0.00001
				CHANNELS 3 Zrotation Xrotation Yrotation
				JOINT RightForeFoot
				{
					OFFSET 0.00000 -3.74820 0.00000
					CHANNELS 3 Zrotation Xrotation Yrotation
					JOINT RightToeBase
					{
						OFFSET 0.00000 0.06325 14.43120
						CHANNELS 3 Zrotation Xrotation Yrotation
						End site
						{
							OFFSET 0.00000 0.00000 0.00000
						}
					}
				}
			}
		}
	}
	JOINT LeftUpLeg
	{
		OFFSET 9.98441 0.00000 0.00000
		CHANNELS 3 Zrotation Xrotation Yrotation
		JOINT LeftLeg
		{
			OFFSET 0.00000 -42.11800 0.00000
			CHANNELS 3 Zrotation Xrotation Yrotation
			JOINT LeftFoot
			{
				OFFSET 0.00000 -45.00070 0.00000
				CHANNELS 3 Zrotation Xrotation Yrotation
				JOINT LeftForeFoot
				{
					OFFSET 0.00000 -3.74824 0.00000
					CHANNELS 3 Zrotation Xrotation Yrotation
					JOINT LeftToeBase
					{
						OFFSET 0.00000 0.06325 14.43110
						CHANNELS 3 Zrotation Xrotation Yrotation
						End site
						{
							OFFSET 0.00000 0.00000 0.00000
						}
					}
				}
			}
		}
	}
}
MOTION
Frames: 4
Frame Time: 0.050000
-0.006471997418359268 0.03074358701453127 -0.03063200815265471 0.03190494452493923 -0.011487596461215381 0.03097736114531545 -4.807467021500747 9.286796831828553 -0.4323341340600861 -0.8297767914068471 2.951882703284946 0.4134746993924796 -1.0417360119750436 0.45920704139092877 -0.5775177962334358 -1.1685036653317844 0.1959984230131467 -0.9101891212854285 -0.5982454588113424 6.199416510192804 1.0919601884657837 -0.4343968256214312 -2.1834722555615214 -2.4410490713611557 -0.5547246413681389 -16.858092000325353 -0.10135188436977835 2.9422756728496955 0.15407496314003943 -7.112712441174229 52.78350940148291 4.735506697650419 35.63790464315755 6.664289848523615 17.523035799267543 74.29620606197177 27.678828593990062 -0.14231653490515012 -9.496373850137143 4.563191017495127 -0.08490604168659455 -1.6109319078270772 0.0002660355932940289 -0.04564430591231302 -56.23102805919368 0.008967374862298367 -0.024886068641826006 -56.2197357017157 -38.78720111270516 -0.03948192243936399 0.02283244991882735 0.036236896428619526 0.00903923111769512 0.00243634206159437 -0.03764955800847144 0.018063456285651078 -0.0450469910053695 -36.68297524594891 -0.03963722445724149 -0.023025239030426952 0.03389955812605101 0.04477604210883128 -0.023311828834216734 0.02146714696650823 -0.04142666342158774 0.03297813597580226 -19.78645553936934 -0.027151458599164093 -0.0329844805604255 -0.0023827994955625434 -0.028686984989973376 -0.028626386429066442 0.03756461415740384 0.04008099989473568 -0.02075732974959764 24.04230283770748 0.0035638197887994144 -0.026599707762807224 28.844437046159072 -0.04887872393819454 -0.04501075142122814 28.866471993903527 -0.005478635651833958 -0.01757293057784548 -2.178571330848387 0.0446369892134009 7.06772594841659 -50.798427431074515 19.82100720421717 -29.156877522866715 -24.407439186604563 15.028445943331155 -82.19236912739068 -25.721772684283206 -7.970452279752503 6.280486621093713 -0.47906663518204917 0.11317886487478937 -8.114780613781758 0.02809203065130495 -0.02175277721067901 44.567025929322234 0.020908280480351264 -0.032802420605200444 44.59300082235447 12.447781233512963 -0.006234398070979343 -0.01872675834473159 -0.02894218942125446 0.03068460181033474 0.017592905073322337 -0.023074353611168014 0.015059252055563176 -0.03267191586210176 11.14482289025447 -0.02855670005380018 -0.010013615650188745 -0.009589138168165206 -0.024365820721389896 -0.03383563902160948 -0.0035718622742375405 -0.0056035294644515505 -0.036499824098260025 4.7374735552776315 0.03561583709627959 -0.03049419927030362 0.014516840928032916 0.0233480892333949 0.009306632809264182 -0.04591265964807695 -0.0007074445544842461 0.01708376627403229 -5.618312773584001 0.04159913648526709 0.0022910973281162223 -6.7172161828647745 0.04231515338661072 -0.035189135143267894 -6.764794996181991 -0.01878574579659952 -0.0493284349563341 -0.003960518556115649 -0.025238753491369836 0.0037500714894616637 8.046957228582805 3.469818977152882 -19.187693423469437 0.04193426025623651 10.363587647812855 0.01666934569886079 -5.616890580379196 -15.639116986060534 3.211196575685268 -0.03546667950692459 0.004059853701064662 -0.04924227865780154 -0.008608043941305881 4.6685454628658665 0.024738414577429098 12.45619326829675 -8.275076111032016 6.914925662608087 0.042949807080624035 46.35137574661544 -0.012980330206581217 -4.32200702030257 -14.69850315924464 -3.8570324813991936 -0.034223189192479714 -0.04141052984313455 0.015805072739890656 -0.04732521968648186 -10.72931951483279 0.023135623632293597 
-0.010316847885732353 0.03351145565731041 0.042614102689261635 -0.03622804244248098 -0.02085263113913957 0.01825380363552808 -4.852494596431438 9.221541749432399 -0.35171029542457694 -0.8411165902028964 2.9208259815445867 0.4489615889566334 -1.0446908843390983 0.4491265903446891 -0.6768913317419789 -1.122325249400787 0.1957562800864356 -0.9172586032867683 -0.6769072920266095 6.088493697006377 1.2228304061781023 -0.5033305074881799 -2.103313671739437 -2.187363113326801 -0.5871829246699577 -16.66819613680139 -0.050306773233997265 3.125762736178579 0.03671894314687996 -7.075417447328645 50.57383366553609 4.239712351211354 33.10903137447722 2.0291861169771717 17.135698056860655 71.21126613597237 28.676161184586782 -0.1853722976521082 -8.833440711497964 4.535989666412191 -0.11218212274621811 -1.6412633914437147 0.034213388137373554 0.04743674721263396 -56.265415893425576 -0.04076967290998007 0.024672737090801207 -56.20883311545542 -38.759555848880844 0.02356587294859193 -0.009220360730886154 -0.03432138840387836 0.009930115359605167 0.04184411978363723 -0.029845800251790316 0.047332559389065804 0.02002282056855187 -36.66232468146058 0.013578690406186615 -0.008651792108254432 0.037372535614708734 0.03843357648089444 -0.029504656122304403 -0.038672344007177305 -0.0011871448356548762 0.04225474984785113 -19.75282882503324 -0.006010799436851863 -0.011382366367298823 0.0012718655524267771 0.02008157361224546 -0.011295997349686197 0.02484546240969237 0.03971939838766886 0.04401201635250909 24.049484010957197 -0.04758474339564405 0.021708590351553703 28.8371339532941 0.037176377553287177 -0.03381886504745632 28.853967405925115 0.023239015509586937 0.029061598606791677 -2.253451252650015 0.08157923441664314 7.169208534087991 -49.18283219014805 19.73788115563377 -28.898776810889085 -19.69743319412549 13.774607350673922 -80.84350041263102 -26.457692691698252 -8.453216920606149 6.706458359651733 -0.5059686851489141 0.09591399647441648 -8.128410079078067 -0.010793195067319324 0.0026340230449980132 44.559079498712975 0.030791075359511245 -0.016567188724063 44.60672997095496 12.491330375061388 0.04351382668536823 -0.016842104409200115 0.014533940526982828 -0.029918107122113128 0.0033575456279999606 0.0012547503536418907 0.011534238385129292 0.027705967861802763 11.114120875050292 -0.021438491717301885 0.019916521551508838 -0.01402074474409874 0.030006280638065718 0.003946433710219002 -0.005389189719188673 -0.020047725612552084 0.01302570550010133 4.724077122540203 0.03276478241905103 -0.004375807236732016 -0.010784222261557584 0.022340849183701834 -0.03530853261963666 -0.03066332284698017 0.0247159375765153 0.010691901550237394 -5.5981435361423 -0.011061644288600495 -0.00877734369150969 -6.731989417384142 -0.033588919644312695 -0.0029768784749955525 -6.741575378409485 0.01963584431302185 0.034399214581842384 -0.047059251387173026 -0.045189457170931605 0.03808809641029198 8.083594015782545 3.52203910868184 -19.183694407776773 -0.005849644430205832 10.370892784033856 0.033723371797086274 -5.58104684184699 -15.678124878266816 3.169668089834642 -0.032133822141091416 -0.011123111237780791 0.016399393865594428 0.04795823672676339 4.685709966496838 0.015147733552782953 12.46672730578358 -8.218775005814248 6.917846965220564 -0.010328584151126393 46.376720675584345 0.0016627042615076715 -4.371664344817165 -14.747719505867646 -3.8517136447473437 -0.0204661173535101 0.019923917629477924 -0.006420550026402723 0.03281328616680556 -10.787415157435403 0.020499382934392178 
-0.04176894074703847 0.008052614614539091 -0.01103623957252139 0.029877545013250236 0.04740790748365802 0.03599989225848564 -4.810521264376305 9.12619636604287 -0.3596770087255551 -0.7578337825025425 2.9438703351015523 0.39988842111370027 -0.9904318844996949 0.4714017768878884 -0.8338946730439978 -1.1157053088087725 0.1176563128453173 -0.9710056311651752 -0.7489831814643768 5.944023403059108 1.101898396910057 -0.4826784532547873 -2.0811553378893453 -2.200494385709884 -0.5604314601927729 -16.600235378754267 -0.08908867134539844 3.5896054878320185 -0.10050705598946559 -7.179445147678627 49.02063842444027 4.190268493337623 30.34440103705682 -0.9334820910869318 16.93894537485039 68.19175956257088 29.841444602926224 -0.16295851974200884 -8.658493289785973 4.535609218483463 -0.17196379497501682 -1.6222701098115206 0.004938846107245586 -0.015969956270223434 -56.24643825118853 0.03340749235065093 -0.007477784508834125 -56.26684775743011 -38.80452618141748 -0.007354263257197312 -0.023065154159097597 -0.005053017268202836 0.02023930518166806 -0.004258835140451464 -0.0040580145298287655 0.0357872240806967 0.030895392092242836 -36.69040031822592 0.0074086685841462056 -0.008717870709123382 -0.002117648252762936 -0.007921529834838011 0.008645964646195312 0.04373546189174524 0.03535202608062335 -0.016208786613241075 -19.716075894911924 -0.03566907633177462 -0.008170068520490332 -0.021108217241057558 -0.037076135738984176 0.007239632813832646 0.02234418718707964 -0.020610921108946613 0.034879691951334904 24.024507428623014 0.02804445166063937 -0.024401195122697665 28.839554251835654 -0.0040355291742712115 0.04600333397952357 28.848213304288226 -0.013079673769737765 -0.011939081766157843 -2.3929713194751425 0.07486208438622599 7.203886446807442 -47.5837488239916 20.35015879467533 -28.785553749130862 -14.557968615261531 11.743661213876909 -79.39575318080975 -27.565962212569666 -9.117824256527443 7.415948051275998 -0.4455100882130423 0.09671741377186396 -8.142462404167913 0.016997406111161763 -0.04681232441878879 44.60290106200807 0.02541292256005058 -0.0003386555219144614 44.5769986318925 12.475527865973843 -0.008582265751749786 0.009761760070764623 0.045799809818620564 0.03594528317286111 0.027876899541858683 0.002374633428868319 0.015450362138383198 -0.002091272978247102 11.12138151858637 0.007836232260441786 0.04946675501727057 0.026105061035103978 -0.015426286528733594 -0.03406682785447856 -0.004885558009894743 -0.02250146605563228 0.010570172878071812 4.791077824207298 -0.039368218310930674 -0.04881288247422878 -0.04950196312026169 0.022042666366928716 0.015460783053908455 -0.042665404925642275 -0.010757133832927424 -0.024858663981833097 -5.577978361602613 0.01098075633583648 -0.0032369664508402987 -6.6813579710543864 -0.01208193189362461 0.04976523092255352 -6.7255055198533915 -0.021319118993927882 0.018004157759435434 0.03183566652942031 0.023772141562803033 0.002624177085510479 8.093104193754733 3.5199283254911617 -19.256130149089977 -0.045135845669549465 10.346973638660765 -0.01657604451126379 -5.604343366105765 -15.639907184608814 3.1853415737120554 0.021923589502291476 -0.0052091722096292035 -0.025398502292025886 -0.019967843477856132 4.649563720503452 -0.029101920818108598 12.44362336310992 -8.22376490156833 6.876068795311855 -0.04952315257762053 46.389292424578436 -0.027468511534409927 -4.303987586406498 -14.765531669015914 -3.872720030835486 0.018851659134335556 0.021183833166506166 0.046831808764741155 -0.011890045689333897 -10.739828723842171 -0.020102717157566913 
-0.04214316473362506 0.0050597385539376625 0.0022826349677133036 -0.02437887574212669 0.008798707084892858 -0.0450732570675181 -4.751430815489316 9.054299542591368 -0.3674593995491545 -0.7972703152751199 2.908253525912003 0.3702964341689864 -0.9865131368249737 0.3981546912598683 -0.9581548002750289 -0.9530530567081564 0.20287434738372356 -1.0502546586784103 -0.6720795401415133 5.9204085237156105 1.0443143799399455 -0.49239140818995614 -2.0988170998383087 -2.2877772637439144 -0.5890763818247253 -16.562073377778525 -0.0764188426610555 3.9626627045170495 -0.18984801097436044 -7.253785882397107 47.88423430721378 4.1078563641082955 28.857752575309203 -1.896786739563784 16.851501270221323 66.64825679541576 30.864742281661584 -0.10992895052468123 -8.780861926071964 4.493034379655583 -0.10786814630921661 -1.5562708748692538 -0.03662074905751003 0.01359282614560246 -56.218356707797085 0.0460617977953755 -0.036681202729378797 -56.242805098909336 -38.725102740711 -0.02025013444245084 0.0442083701655226 -0.04359894313514619 0.022681110832238824 0.0217088862900748 0.024572946250442575 -0.015292662882449905 -0.04257930900485963 -36.713132789739554 -0.03322532466837182 0.006682505005502659 0.0069707841449038405 0.02065651099754645 0.021203345512621676 0.014268306631027265 -0.019832531817564444 -0.022728055986346373 -19.722345065439008 0.04028656389590504 0.04876316684417759 -0.01574318674506944 0.005307528376007768 0.04081638841060596 -0.02796894916706076 0.03742448330330167 0.02362297364242633 24.05645342187773 -0.03197747576512692 -0.02566200256632949 28.870657218659797 -0.02001007383144638 -0.0058695795717524 28.836191486087646 0.0476794933115564 0.00042899587528236953 -2.463796969847175 0.08944181543793867 7.22931727689302 -46.34148716354878 21.342440938008313 -29.46011666251212 -10.308182166987077 9.513134780973344 -78.86347895028145 -28.493022360735324 -9.703140740494582 7.991624422531379 -0.4605417328261943 0.057962346837753614 -8.157819070400574 0.017185434892202374 0.030684353767548425 44.53964937311918 -0.01561899274810976 0.0002342119913485387 44.59519001547 12.451062345291724 0.007386372242276008 -0.0016712730335877125 0.03725263317455236 0.047128195681820605 0.02121274613999326 -0.04265287367929611 0.008925979709489402 -0.017003277781470785 11.133303597186686 -0.01852197427306491 -0.034478181463644515 0.04254575143172197 -0.00026670028491709494 -0.00316515000246793 0.01596405722197187 -0.02540576298207248 -0.0050735216800376765 4.796371380871078 -0.028733782188423262 -0.01581138817991642 -0.012039649527136393 -0.03201540022382488 0.02538529206542714 0.003595009551686413 -0.022640535975217608 0.04431769296579055 -5.633007169206524 -0.02328161632380451 0.000451447013943226 -6.706846695576734 -0.01108412350056471 0.02791777432268979 -6.7417180017405265 0.04074615200384787 -0.04510439154345915 -0.003824973272047729 0.015504113206619043 0.049668133817011836 8.092720360279433 3.46430399981742 -19.19535251542204 0.003438177518398463 10.406842498210983 0.0043845112073727655 -5.587571405849558 -15.616895736304807 3.182061123013476 -0.02584624415102699 0.008966298642689283 -0.03880700886398889 0.01598489832260799 4.744718299563472 -0.03873120739206737 12.458281875784905 -8.220019964215782 6.9089770900762675 0.011095474480418211 46.39792233310877 -0.004894607076290768 -4.275552329983625 -14.711858303226974 -3.8512491718203754 -0.0407201649378908 -0.03324054226189053 -0.0005265704003984607 0.003202458559730712 -10.74127777971869 0.009077280230690698 
